<svg version="1.1" xmlns="http://www.w3.org/2000/svg" xmlns:xlink="http://www.w3.org/1999/xlink" width="149.65625" height="231"><defs/><g><g transform="translate(-222,-206) scale(1,1)"><rect fill="#C0C0C0" stroke="none" x="247" y="223" width="117.3544921875" height="44" opacity="0.2"/></g><g transform="translate(-222,-206) scale(1,1)"><rect fill="#ffffff" stroke="none" x="240" y="216" width="117.3544921875" height="44"/></g><g transform="translate(-222,-206) scale(1,1)"><path fill="none" stroke="#000000" d="M 240 216 L 357.3544921875 216 L 357.3544921875 260 L 240 260 L 240 216 Z Z" stroke-miterlimit="10"/></g><g transform="translate(-222,-206) scale(1,1)"><path fill="none" stroke="#000000" d="M 240 241 L 357.3544921875 241" stroke-miterlimit="10"/></g><g transform="translate(-222,-206) scale(1,1)"><path fill="none" stroke="#000000" d="M 240 251 L 357.3544921875 251" stroke-miterlimit="10"/></g><g transform="translate(-222,-206) scale(1,1)"><g><path fill="none" stroke="none"/><text fill="#000000" stroke="none" font-family="Helvetica" font-size="13px" font-style="normal" font-weight="bold" text-decoration="none" x="248.4609375" y="235.5">A_ViewController</text></g></g><g transform="translate(-222,-206) scale(1,1)"><rect fill="#C0C0C0" stroke="none" x="239" y="375" width="129.65625" height="59" opacity="0.2"/></g><g transform="translate(-222,-206) scale(1,1)"><rect fill="#ffffd8" stroke="none" x="232" y="368" width="129.65625" height="59"/></g><g transform="translate(-222,-206) scale(1,1)"><path fill="none" stroke="#000000" d="M 232 368 L 361.65625 368 L 361.65625 427 L 232 427 L 232 368 Z Z" stroke-miterlimit="10"/></g><g transform="translate(-222,-206) scale(1,1)"><path fill="none" stroke="#000000" d="M 232 408 L 361.65625 408" stroke-miterlimit="10"/></g><g transform="translate(-222,-206) scale(1,1)"><path fill="none" stroke="#000000" d="M 232 418 L 361.65625 418" stroke-miterlimit="10"/></g><g transform="translate(-222,-206) scale(1,1)"><g><path fill="none" stroke="none"/><text fill="#000000" stroke="none" font-family="Helvetica" font-size="13px" font-style="normal" font-weight="bold" text-decoration="none" x="251.299560546875" y="387.5">LogicalScreenA</text></g></g><g transform="translate(-222,-206) scale(1,1)"><g><path fill="none" stroke="none"/><text fill="#000000" stroke="none" font-family="Helvetica" font-size="13px" font-style="normal" font-weight="normal" text-decoration="none" x="236.5" y="402.5">(from LogicalScreen)</text></g></g><g transform="translate(-222,-206) scale(1,1)"><path fill="none" stroke="#000000" d="M 300 260 L 300 368" stroke-miterlimit="10" stroke-dasharray="3"/></g><g transform="translate(-222,-206) scale(1,1)"><path fill="none" stroke="#000000" d="M 295.790482243984 357.83732514237585 L 300 368 L 304.209517756016 357.83732514237585" stroke-miterlimit="10"/></g><g transform="translate(-222,-206) scale(1,1)"><g><path fill="none" stroke="none"/><text fill="#000000" stroke="none" font-family="Helvetica" font-size="13px" font-style="normal" font-weight="normal" text-decoration="none" x="311.5" y="319.5">«use»</text></g></g></g></svg>