<svg version="1.1" xmlns="http://www.w3.org/2000/svg" xmlns:xlink="http://www.w3.org/1999/xlink" width="1111" height="692"><defs/><g><g transform="translate(-11,-14) scale(1,1)"><path fill="none" stroke="#000000" d="M 21 24 L 1112 24 L 1112 696 L 21 696 L 21 24" stroke-miterlimit="10"/></g><g transform="translate(-11,-14) scale(1,1)"><path fill="#ffffff" stroke="none" d="M 21 24 L 21 46 L 226.97900390625 46 L 237.97900390625 35 L 237.97900390625 24 L 21 24"/></g><g transform="translate(-11,-14) scale(1,1)"><path fill="none" stroke="#000000" d="M 21 24 L 21 46 L 226.97900390625 46 L 237.97900390625 35 L 237.97900390625 24 L 21 24 L 21 24" stroke-miterlimit="10"/></g><g transform="translate(-11,-14) scale(1,1)"><g><path fill="none" stroke="none"/><text fill="#000000" stroke="none" font-family="Helvetica" font-size="13px" font-style="normal" font-weight="normal" text-decoration="none" x="91.97900390625" y="41.5">初回画面生成のフロー</text></g></g><g transform="translate(-11,-14) scale(1,1)"><g><path fill="none" stroke="none"/><text fill="#000000" stroke="none" font-family="Helvetica" font-size="13px" font-style="normal" font-weight="bold" text-decoration="none" x="26" y="41.5">interaction</text></g></g><g transform="translate(-11,-14) scale(1,1)"><rect fill="#C0C0C0" stroke="none" x="367" y="183" width="100.736328125" height="93" opacity="0.2"/></g><g transform="translate(-11,-14) scale(1,1)"><rect fill="#ffffff" stroke="none" x="360" y="176" width="100.736328125" height="93"/></g><g transform="translate(-11,-14) scale(1,1)"><path fill="none" stroke="#000000" d="M 360 176 L 460.736328125 176 L 460.736328125 269 L 360 269 L 360 176 Z Z" stroke-miterlimit="10"/></g><g transform="translate(-11,-14) scale(1,1)"><rect fill="#ffffff" stroke="none" x="360" y="176" width="100.736328125" height="93"/></g><g transform="translate(-11,-14) scale(1,1)"><path fill="none" stroke="#000000" d="M 360 176 L 460.736328125 176 L 460.736328125 269 L 360 269 L 360 176 Z Z" stroke-miterlimit="10"/></g><g transform="translate(-11,-14) scale(1,1)"><g><path fill="none" stroke="none"/><text fill="#000000" stroke="none" font-family="Helvetica" font-size="13px" font-style="normal" font-weight="bold" text-decoration="none" x="368.102294921875" y="195.5">ViewController</text></g></g><g transform="translate(-11,-14) scale(1,1)"><rect fill="#C0C0C0" stroke="none" x="375" y="402" width="99" height="29" opacity="0.2"/></g><g transform="translate(-11,-14) scale(1,1)"><rect fill="#ffffff" stroke="none" x="368" y="395" width="99" height="29"/></g><g transform="translate(-11,-14) scale(1,1)"><path fill="none" stroke="#000000" d="M 368 395 L 467 395 L 467 424 L 368 424 L 368 395 Z Z" stroke-miterlimit="10"/></g><g transform="translate(-11,-14) scale(1,1)"><rect fill="#ffffff" stroke="none" x="368" y="395" width="99" height="29"/></g><g transform="translate(-11,-14) scale(1,1)"><path fill="none" stroke="#000000" d="M 368 395 L 467 395 L 467 424 L 368 424 L 368 395 Z Z" stroke-miterlimit="10"/></g><g transform="translate(-11,-14) scale(1,1)"><g><path fill="none" stroke="none"/><text fill="#000000" stroke="none" font-family="Helvetica" font-size="13px" font-style="normal" font-weight="bold" text-decoration="none" x="387.878662109375" y="414.5">FirstStage</text></g></g><g transform="translate(-11,-14) scale(1,1)"><path fill="none" stroke="#000000" d="M 411 269 L 411 395" stroke-miterlimit="10"/></g><g transform="translate(-11,-14) scale(1,1)"><g><path fill="none" stroke="none"/><text fill="#000000" stroke="none" font-family="Helvetica" font-size="13px" font-style="normal" font-weight="normal" text-decoration="none" x="366.5" y="339.5">«use»</text></g></g><g transform="translate(-11,-14) scale(1,1)"><path fill="none" stroke="#000000" d="M 420 351 L 420 311" stroke-miterlimit="10"/></g><g transform="translate(-11,-14) scale(1,1)"><path fill="#000000" stroke="none" d="M 415 339 L 420 351 L 424 339"/></g><g transform="translate(-11,-14) scale(1,1)"><g><path fill="none" stroke="none"/><text fill="#000000" stroke="none" font-family="Helvetica" font-size="13px" font-style="normal" font-weight="normal" text-decoration="none" x="438.708740234375" y="339.5">1 : createLogicalScreen</text></g></g><g transform="translate(-11,-14) scale(1,1)"><rect fill="#C0C0C0" stroke="none" x="375" y="535" width="99" height="29" opacity="0.2"/></g><g transform="translate(-11,-14) scale(1,1)"><rect fill="#ffffff" stroke="none" x="368" y="528" width="99" height="29"/></g><g transform="translate(-11,-14) scale(1,1)"><path fill="none" stroke="#000000" d="M 368 528 L 467 528 L 467 557 L 368 557 L 368 528 Z Z" stroke-miterlimit="10"/></g><g transform="translate(-11,-14) scale(1,1)"><rect fill="#ffffff" stroke="none" x="368" y="528" width="99" height="29"/></g><g transform="translate(-11,-14) scale(1,1)"><path fill="none" stroke="#000000" d="M 368 528 L 467 528 L 467 557 L 368 557 L 368 528 Z Z" stroke-miterlimit="10"/></g><g transform="translate(-11,-14) scale(1,1)"><g><path fill="none" stroke="none"/><text fill="#000000" stroke="none" font-family="Helvetica" font-size="13px" font-style="normal" font-weight="bold" text-decoration="none" x="391.4873046875" y="547.5">Domain1</text></g></g><g transform="translate(-11,-14) scale(1,1)"><path fill="none" stroke="#000000" d="M 417 425 L 417 527" stroke-miterlimit="10"/></g><g transform="translate(-11,-14) scale(1,1)"><g><path fill="none" stroke="none"/><text fill="#000000" stroke="none" font-family="Helvetica" font-size="13px" font-style="normal" font-weight="normal" text-decoration="none" x="428.5" y="481.5">«use»</text></g></g><g transform="translate(-11,-14) scale(1,1)"><path fill="none" stroke="#000000" d="M 399 511 L 399 471" stroke-miterlimit="10"/></g><g transform="translate(-11,-14) scale(1,1)"><path fill="#000000" stroke="none" d="M 394 499 L 399 511 L 403 499"/></g><g transform="translate(-11,-14) scale(1,1)"><g><path fill="none" stroke="none"/><text fill="#000000" stroke="none" font-family="Helvetica" font-size="13px" font-style="normal" font-weight="normal" text-decoration="none" x="287.221435546875" y="490.5">2 : getSomeData</text></g></g><g transform="translate(-11,-14) scale(1,1)"><rect fill="#C0C0C0" stroke="none" x="639" y="407" width="99" height="29" opacity="0.2"/></g><g transform="translate(-11,-14) scale(1,1)"><rect fill="#ffffff" stroke="none" x="632" y="400" width="99" height="29"/></g><g transform="translate(-11,-14) scale(1,1)"><path fill="none" stroke="#000000" d="M 632 400 L 731 400 L 731 429 L 632 429 L 632 400 Z Z" stroke-miterlimit="10"/></g><g transform="translate(-11,-14) scale(1,1)"><rect fill="#ffffff" stroke="none" x="632" y="400" width="99" height="29"/></g><g transform="translate(-11,-14) scale(1,1)"><path fill="none" stroke="#000000" d="M 632 400 L 731 400 L 731 429 L 632 429 L 632 400 Z Z" stroke-miterlimit="10"/></g><g transform="translate(-11,-14) scale(1,1)"><g><path fill="none" stroke="none"/><text fill="#000000" stroke="none" font-family="Helvetica" font-size="13px" font-style="normal" font-weight="bold" text-decoration="none" x="640.306884765625" y="419.5">LogicalScreen</text></g></g><g transform="translate(-11,-14) scale(1,1)"><path fill="none" stroke="#000000" d="M 467 413 L 632 413" stroke-miterlimit="10"/></g><g transform="translate(-11,-14) scale(1,1)"><g><path fill="none" stroke="none"/><text fill="#000000" stroke="none" font-family="Helvetica" font-size="13px" font-style="normal" font-weight="normal" text-decoration="none" x="522.5" y="409.5">«create»</text></g></g><g transform="translate(-11,-14) scale(1,1)"><path fill="none" stroke="#000000" d="M 567 429 L 527 429" stroke-miterlimit="10"/></g><g transform="translate(-11,-14) scale(1,1)"><path fill="#000000" stroke="none" d="M 555 433 L 567 429 L 555 424"/></g><g transform="translate(-11,-14) scale(1,1)"><g><path fill="none" stroke="none"/><text fill="#000000" stroke="none" font-family="Helvetica" font-size="13px" font-style="normal" font-weight="normal" text-decoration="none" x="477.708740234375" y="449.5">3 : createLogicalScreen</text></g></g><g transform="translate(-11,-14) scale(1,1)"><path fill="none" stroke="#000000" d="M 461 248 L 672 248 M 672 248 A 8 8 0 0 1 680 256 L 680 400" stroke-miterlimit="10"/></g><g transform="translate(-11,-14) scale(1,1)"><path fill="none" stroke="#000000" d="M 695 326 L 695 286" stroke-miterlimit="10"/></g><g transform="translate(-11,-14) scale(1,1)"><path fill="#000000" stroke="none" d="M 690 314 L 695 326 L 699 314"/></g><g transform="translate(-11,-14) scale(1,1)"><g><path fill="none" stroke="none"/><text fill="#000000" stroke="none" font-family="Helvetica" font-size="13px" font-style="normal" font-weight="normal" text-decoration="none" x="704.11279296875" y="308.5">4 : getViewData</text></g></g><g transform="translate(-11,-14) scale(1,1)"><rect fill="#C0C0C0" stroke="none" x="647" y="183" width="99" height="29" opacity="0.2"/></g><g transform="translate(-11,-14) scale(1,1)"><rect fill="#ffffff" stroke="none" x="640" y="176" width="99" height="29"/></g><g transform="translate(-11,-14) scale(1,1)"><path fill="none" stroke="#000000" d="M 640 176 L 739 176 L 739 205 L 640 205 L 640 176 Z Z" stroke-miterlimit="10"/></g><g transform="translate(-11,-14) scale(1,1)"><rect fill="#ffffff" stroke="none" x="640" y="176" width="99" height="29"/></g><g transform="translate(-11,-14) scale(1,1)"><path fill="none" stroke="#000000" d="M 640 176 L 739 176 L 739 205 L 640 205 L 640 176 Z Z" stroke-miterlimit="10"/></g><g transform="translate(-11,-14) scale(1,1)"><g><path fill="none" stroke="none"/><text fill="#000000" stroke="none" font-family="Helvetica" font-size="13px" font-style="normal" font-weight="bold" text-decoration="none" x="675.411376953125" y="195.5">View</text></g></g><g transform="translate(-11,-14) scale(1,1)"><path fill="none" stroke="#000000" d="M 461 192 L 640 192" stroke-miterlimit="10"/></g><g transform="translate(-11,-14) scale(1,1)"><g><path fill="none" stroke="none"/><text fill="#000000" stroke="none" font-family="Helvetica" font-size="13px" font-style="normal" font-weight="normal" text-decoration="none" x="511.5" y="179.5">«data bind»</text></g></g><g transform="translate(-11,-14) scale(1,1)"><path fill="none" stroke="#000000" d="M 566 215 L 526 215" stroke-miterlimit="10"/></g><g transform="translate(-11,-14) scale(1,1)"><path fill="#000000" stroke="none" d="M 554 219 L 566 215 L 554 210"/></g><g transform="translate(-11,-14) scale(1,1)"><g><path fill="none" stroke="none"/><text fill="#000000" stroke="none" font-family="Helvetica" font-size="13px" font-style="normal" font-weight="normal" text-decoration="none" x="489.359619140625" y="210.5">5 : assignViewData</text></g></g><g transform="translate(-11,-14) scale(1,1)"><path fill="#ffffff" stroke="none" d="M 801 400 L 926 400 L 936 410 L 936 448 L 801 448 L 801 400"/></g><g transform="translate(-11,-14) scale(1,1)"><path fill="none" stroke="#000000" d="M 801 400 L 926 400 L 936 410 L 936 448 L 801 448 L 801 400 L 801 400" stroke-miterlimit="10"/></g><g transform="translate(-11,-14) scale(1,1)"><path fill="none" stroke="#000000" d="M 926 400 L 926 410 L 936 410 L 926 400" stroke-miterlimit="10"/></g><g transform="translate(-11,-14) scale(1,1)"><g><path fill="none" stroke="none"/><text fill="#000000" stroke="none" font-family="Helvetica" font-size="13px" font-style="normal" font-weight="normal" text-decoration="none" x="806" y="418">UIデザインに対する</text></g></g><g transform="translate(-11,-14) scale(1,1)"><g><path fill="none" stroke="none"/><text fill="#000000" stroke="none" font-family="Helvetica" font-size="13px" font-style="normal" font-weight="normal" text-decoration="none" x="806" y="433">論理データ</text></g></g><g transform="translate(-11,-14) scale(1,1)"><path fill="none" stroke="#000000" d="M 732 417 L 800 420" stroke-miterlimit="10" stroke-dasharray="3"/></g><g transform="translate(-11,-14) scale(1,1)"><path fill="#ffffff" stroke="none" d="M 809 176 L 934 176 L 944 186 L 944 224 L 809 224 L 809 176"/></g><g transform="translate(-11,-14) scale(1,1)"><path fill="none" stroke="#000000" d="M 809 176 L 934 176 L 944 186 L 944 224 L 809 224 L 809 176 L 809 176" stroke-miterlimit="10"/></g><g transform="translate(-11,-14) scale(1,1)"><path fill="none" stroke="#000000" d="M 934 176 L 934 186 L 944 186 L 934 176" stroke-miterlimit="10"/></g><g transform="translate(-11,-14) scale(1,1)"><g><path fill="none" stroke="none"/><text fill="#000000" stroke="none" font-family="Helvetica" font-size="13px" font-style="normal" font-weight="normal" text-decoration="none" x="814" y="194">UIデザインに対する</text></g></g><g transform="translate(-11,-14) scale(1,1)"><g><path fill="none" stroke="none"/><text fill="#000000" stroke="none" font-family="Helvetica" font-size="13px" font-style="normal" font-weight="normal" text-decoration="none" x="814" y="209">レイアウトの実装</text></g></g><g transform="translate(-11,-14) scale(1,1)"><path fill="none" stroke="#000000" d="M 740 193 L 808 196" stroke-miterlimit="10" stroke-dasharray="3"/></g><g transform="translate(-11,-14) scale(1,1)"><path fill="#ffffff" stroke="none" d="M 248 104 L 412 104 L 422 114 L 422 142 L 248 142 L 248 104"/></g><g transform="translate(-11,-14) scale(1,1)"><path fill="none" stroke="#000000" d="M 248 104 L 412 104 L 422 114 L 422 142 L 248 142 L 248 104 L 248 104" stroke-miterlimit="10"/></g><g transform="translate(-11,-14) scale(1,1)"><path fill="none" stroke="#000000" d="M 412 104 L 412 114 L 422 114 L 412 104" stroke-miterlimit="10"/></g><g transform="translate(-11,-14) scale(1,1)"><g><path fill="none" stroke="none"/><text fill="#000000" stroke="none" font-family="Helvetica" font-size="13px" font-style="normal" font-weight="normal" text-decoration="none" x="253" y="122">初回画面生成のシーケンス</text></g></g><g transform="translate(-11,-14) scale(1,1)"><path fill="#ffffff" stroke="none" d="M 64 200 L 280 200 L 290 210 L 290 238 L 64 238 L 64 200"/></g><g transform="translate(-11,-14) scale(1,1)"><path fill="none" stroke="#000000" d="M 64 200 L 280 200 L 290 210 L 290 238 L 64 238 L 64 200 L 64 200" stroke-miterlimit="10"/></g><g transform="translate(-11,-14) scale(1,1)"><path fill="none" stroke="#000000" d="M 280 200 L 280 210 L 290 210 L 280 200" stroke-miterlimit="10"/></g><g transform="translate(-11,-14) scale(1,1)"><g><path fill="none" stroke="none"/><text fill="#000000" stroke="none" font-family="Helvetica" font-size="13px" font-style="normal" font-weight="normal" text-decoration="none" x="69" y="218">ユーザーからのデータ入力に関する</text></g></g><g transform="translate(-11,-14) scale(1,1)"><g><path fill="none" stroke="none"/><text fill="#000000" stroke="none" font-family="Helvetica" font-size="13px" font-style="normal" font-weight="normal" text-decoration="none" x="69" y="233">デリゲート処理を実行する</text></g></g><g transform="translate(-11,-14) scale(1,1)"><path fill="none" stroke="#000000" d="M 359 221 L 292 220" stroke-miterlimit="10" stroke-dasharray="3"/></g></g></svg>