<svg version="1.1" xmlns="http://www.w3.org/2000/svg" xmlns:xlink="http://www.w3.org/1999/xlink" width="604" height="740"><defs/><g><g transform="translate(-54,-46) scale(1,1)"><rect fill="#C0C0C0" stroke="none" x="71" y="63" width="76.80000000000001" height="15" opacity="0.2"/></g><g transform="translate(-54,-46) scale(1,1)"><rect fill="#C0C0C0" stroke="none" x="71" y="77" width="192" height="82" opacity="0.2"/></g><g transform="translate(-54,-46) scale(1,1)"><rect fill="#ffffff" stroke="none" x="64" y="71" width="192" height="81"/></g><g transform="translate(-54,-46) scale(1,1)"><path fill="none" stroke="#000000" d="M 64 71 L 256 71 L 256 152 L 64 152 L 64 71 Z Z" stroke-miterlimit="10"/></g><g transform="translate(-54,-46) scale(1,1)"><rect fill="#ffffff" stroke="none" x="64" y="56" width="76.80000000000001" height="15"/></g><g transform="translate(-54,-46) scale(1,1)"><path fill="none" stroke="#000000" d="M 64 56 L 140.8 56 L 140.8 71 L 64 71 L 64 56 Z Z" stroke-miterlimit="10"/></g><g transform="translate(-54,-46) scale(1,1)"><rect fill="#ffffff" stroke="none" x="64" y="70" width="192" height="82"/></g><g transform="translate(-54,-46) scale(1,1)"><path fill="none" stroke="#000000" d="M 64 70 L 256 70 L 256 152 L 64 152 L 64 70 Z Z" stroke-miterlimit="10"/></g><g transform="translate(-54,-46) scale(1,1)"><g><path fill="none" stroke="none"/><text fill="#000000" stroke="none" font-family="Helvetica" font-size="13px" font-style="normal" font-weight="bold" text-decoration="none" x="153.5" y="90.5">UI</text></g></g><g transform="translate(-54,-46) scale(1,1)"><rect fill="#C0C0C0" stroke="none" x="79" y="219" width="89.6" height="15" opacity="0.2"/></g><g transform="translate(-54,-46) scale(1,1)"><rect fill="#C0C0C0" stroke="none" x="79" y="233" width="224" height="82" opacity="0.2"/></g><g transform="translate(-54,-46) scale(1,1)"><rect fill="#ffffff" stroke="none" x="72" y="227" width="224" height="81"/></g><g transform="translate(-54,-46) scale(1,1)"><path fill="none" stroke="#000000" d="M 72 227 L 296 227 L 296 308 L 72 308 L 72 227 Z Z" stroke-miterlimit="10"/></g><g transform="translate(-54,-46) scale(1,1)"><rect fill="#ffffff" stroke="none" x="72" y="212" width="89.6" height="15"/></g><g transform="translate(-54,-46) scale(1,1)"><path fill="none" stroke="#000000" d="M 72 212 L 161.6 212 L 161.6 227 L 72 227 L 72 212 Z Z" stroke-miterlimit="10"/></g><g transform="translate(-54,-46) scale(1,1)"><rect fill="#ffffff" stroke="none" x="72" y="226" width="224" height="82"/></g><g transform="translate(-54,-46) scale(1,1)"><path fill="none" stroke="#000000" d="M 72 226 L 296 226 L 296 308 L 72 308 L 72 226 Z Z" stroke-miterlimit="10"/></g><g transform="translate(-54,-46) scale(1,1)"><g><path fill="none" stroke="none"/><text fill="#000000" stroke="none" font-family="Helvetica" font-size="13px" font-style="normal" font-weight="bold" text-decoration="none" x="152.201416015625" y="246.5">Application</text></g></g><g transform="translate(-54,-46) scale(1,1)"><rect fill="#C0C0C0" stroke="none" x="79" y="375" width="147.2" height="15" opacity="0.2"/></g><g transform="translate(-54,-46) scale(1,1)"><rect fill="#C0C0C0" stroke="none" x="79" y="389" width="368" height="82" opacity="0.2"/></g><g transform="translate(-54,-46) scale(1,1)"><rect fill="#ffffff" stroke="none" x="72" y="383" width="368" height="81"/></g><g transform="translate(-54,-46) scale(1,1)"><path fill="none" stroke="#000000" d="M 72 383 L 440 383 L 440 464 L 72 464 L 72 383 Z Z" stroke-miterlimit="10"/></g><g transform="translate(-54,-46) scale(1,1)"><rect fill="#ffffff" stroke="none" x="72" y="368" width="147.2" height="15"/></g><g transform="translate(-54,-46) scale(1,1)"><path fill="none" stroke="#000000" d="M 72 368 L 219.2 368 L 219.2 383 L 72 383 L 72 368 Z Z" stroke-miterlimit="10"/></g><g transform="translate(-54,-46) scale(1,1)"><rect fill="#ffffff" stroke="none" x="72" y="382" width="368" height="82"/></g><g transform="translate(-54,-46) scale(1,1)"><path fill="none" stroke="#000000" d="M 72 382 L 440 382 L 440 464 L 72 464 L 72 382 Z Z" stroke-miterlimit="10"/></g><g transform="translate(-54,-46) scale(1,1)"><g><path fill="none" stroke="none"/><text fill="#000000" stroke="none" font-family="Helvetica" font-size="13px" font-style="normal" font-weight="bold" text-decoration="none" x="233.602294921875" y="402.5">Domain</text></g></g><g transform="translate(-54,-46) scale(1,1)"><rect fill="#C0C0C0" stroke="none" x="79" y="531" width="185.60000000000002" height="15" opacity="0.2"/></g><g transform="translate(-54,-46) scale(1,1)"><rect fill="#C0C0C0" stroke="none" x="79" y="545" width="464" height="82" opacity="0.2"/></g><g transform="translate(-54,-46) scale(1,1)"><rect fill="#ffffff" stroke="none" x="72" y="539" width="464" height="81"/></g><g transform="translate(-54,-46) scale(1,1)"><path fill="none" stroke="#000000" d="M 72 539 L 536 539 L 536 620 L 72 620 L 72 539 Z Z" stroke-miterlimit="10"/></g><g transform="translate(-54,-46) scale(1,1)"><rect fill="#ffffff" stroke="none" x="72" y="524" width="185.60000000000002" height="15"/></g><g transform="translate(-54,-46) scale(1,1)"><path fill="none" stroke="#000000" d="M 72 524 L 257.6 524 L 257.6 539 L 72 539 L 72 524 Z Z" stroke-miterlimit="10"/></g><g transform="translate(-54,-46) scale(1,1)"><rect fill="#ffffff" stroke="none" x="72" y="538" width="464" height="82"/></g><g transform="translate(-54,-46) scale(1,1)"><path fill="none" stroke="#000000" d="M 72 538 L 536 538 L 536 620 L 72 620 L 72 538 Z Z" stroke-miterlimit="10"/></g><g transform="translate(-54,-46) scale(1,1)"><g><path fill="none" stroke="none"/><text fill="#000000" stroke="none" font-family="Helvetica" font-size="13px" font-style="normal" font-weight="bold" text-decoration="none" x="268.234130859375" y="558.5">DomainRule</text></g></g><g transform="translate(-54,-46) scale(1,1)"><rect fill="#C0C0C0" stroke="none" x="79" y="687" width="230.39999999999998" height="15" opacity="0.2"/></g><g transform="translate(-54,-46) scale(1,1)"><rect fill="#C0C0C0" stroke="none" x="79" y="701" width="576" height="82" opacity="0.2"/></g><g transform="translate(-54,-46) scale(1,1)"><rect fill="#ffffff" stroke="none" x="72" y="695" width="576" height="81"/></g><g transform="translate(-54,-46) scale(1,1)"><path fill="none" stroke="#000000" d="M 72 695 L 648 695 L 648 776 L 72 776 L 72 695 Z Z" stroke-miterlimit="10"/></g><g transform="translate(-54,-46) scale(1,1)"><rect fill="#ffffff" stroke="none" x="72" y="680" width="230.39999999999998" height="15"/></g><g transform="translate(-54,-46) scale(1,1)"><path fill="none" stroke="#000000" d="M 72 680 L 302.4 680 L 302.4 695 L 72 695 L 72 680 Z Z" stroke-miterlimit="10"/></g><g transform="translate(-54,-46) scale(1,1)"><rect fill="#ffffff" stroke="none" x="72" y="694" width="576" height="82"/></g><g transform="translate(-54,-46) scale(1,1)"><path fill="none" stroke="#000000" d="M 72 694 L 648 694 L 648 776 L 72 776 L 72 694 Z Z" stroke-miterlimit="10"/></g><g transform="translate(-54,-46) scale(1,1)"><g><path fill="none" stroke="none"/><text fill="#000000" stroke="none" font-family="Helvetica" font-size="13px" font-style="normal" font-weight="bold" text-decoration="none" x="310.50732421875" y="714.5">TechnicalService</text></g></g><g transform="translate(-54,-46) scale(1,1)"><path fill="none" stroke="#000000" d="M 184 152 L 184 212" stroke-miterlimit="10" stroke-dasharray="3"/></g><g transform="translate(-54,-46) scale(1,1)"><path fill="none" stroke="#000000" d="M 179.790482243984 201.83732514237585 L 184 212 L 188.209517756016 201.83732514237585" stroke-miterlimit="10"/></g><g transform="translate(-54,-46) scale(1,1)"><path fill="none" stroke="#000000" d="M 176 308 L 176 368" stroke-miterlimit="10" stroke-dasharray="3"/></g><g transform="translate(-54,-46) scale(1,1)"><path fill="none" stroke="#000000" d="M 171.790482243984 357.83732514237585 L 176 368 L 180.209517756016 357.83732514237585" stroke-miterlimit="10"/></g><g transform="translate(-54,-46) scale(1,1)"><path fill="none" stroke="#000000" d="M 296 464 L 296 524" stroke-miterlimit="10" stroke-dasharray="3"/></g><g transform="translate(-54,-46) scale(1,1)"><path fill="none" stroke="#000000" d="M 291.790482243984 513.8373251423759 L 296 524 L 300.209517756016 513.8373251423759" stroke-miterlimit="10"/></g><g transform="translate(-54,-46) scale(1,1)"><path fill="none" stroke="#000000" d="M 344 620 L 344 680" stroke-miterlimit="10" stroke-dasharray="3"/></g><g transform="translate(-54,-46) scale(1,1)"><path fill="none" stroke="#000000" d="M 339.790482243984 669.8373251423759 L 344 680 L 348.209517756016 669.8373251423759" stroke-miterlimit="10"/></g><g transform="translate(-54,-46) scale(1,1)"><path fill="none" stroke="#000000" d="M 256 112 L 360 112 M 360 112 A 8 8 0 0 1 368 120 L 368 368" stroke-miterlimit="10" stroke-dasharray="3"/></g><g transform="translate(-54,-46) scale(1,1)"><path fill="none" stroke="#000000" d="M 363.790482243984 357.83732514237585 L 368 368 L 372.209517756016 357.83732514237585" stroke-miterlimit="10"/></g></g></svg>