<svg version="1.1" xmlns="http://www.w3.org/2000/svg" xmlns:xlink="http://www.w3.org/1999/xlink" width="960" height="828"><defs/><g><g transform="translate(-14,-22) scale(1,1)"><rect fill="#C0C0C0" stroke="none" x="463" y="199" width="177.20000000000005" height="15" opacity="0.2"/></g><g transform="translate(-14,-22) scale(1,1)"><rect fill="#C0C0C0" stroke="none" x="463" y="213" width="443" height="82" opacity="0.2"/></g><g transform="translate(-14,-22) scale(1,1)"><rect fill="#d8f2ff" stroke="none" x="456" y="207" width="443" height="81"/></g><g transform="translate(-14,-22) scale(1,1)"><path fill="none" stroke="#000000" d="M 456 207 L 899 207 L 899 288 L 456 288 L 456 207 Z Z" stroke-miterlimit="10"/></g><g transform="translate(-14,-22) scale(1,1)"><rect fill="#d8f2ff" stroke="none" x="456" y="192" width="177.20000000000005" height="15"/></g><g transform="translate(-14,-22) scale(1,1)"><path fill="none" stroke="#000000" d="M 456 192 L 633.2 192 L 633.2 207 L 456 207 L 456 192 Z Z" stroke-miterlimit="10"/></g><g transform="translate(-14,-22) scale(1,1)"><rect fill="#d8f2ff" stroke="none" x="456" y="206" width="443" height="82"/></g><g transform="translate(-14,-22) scale(1,1)"><path fill="none" stroke="#000000" d="M 456 206 L 899 206 L 899 288 L 456 288 L 456 206 Z Z" stroke-miterlimit="10"/></g><g transform="translate(-14,-22) scale(1,1)"><g><path fill="none" stroke="none"/><text fill="#000000" stroke="none" font-family="Helvetica" font-size="13px" font-style="normal" font-weight="bold" text-decoration="none" x="645.70458984375" y="226.5">Storyboard</text></g></g><g transform="translate(-14,-22) scale(1,1)"><rect fill="#C0C0C0" stroke="none" x="527" y="407" width="60.799999999999955" height="15" opacity="0.2"/></g><g transform="translate(-14,-22) scale(1,1)"><rect fill="#C0C0C0" stroke="none" x="527" y="421" width="152" height="74" opacity="0.2"/></g><g transform="translate(-14,-22) scale(1,1)"><rect fill="#d8f2ff" stroke="none" x="520" y="415" width="152" height="73"/></g><g transform="translate(-14,-22) scale(1,1)"><path fill="none" stroke="#000000" d="M 520 415 L 672 415 L 672 488 L 520 488 L 520 415 Z Z" stroke-miterlimit="10"/></g><g transform="translate(-14,-22) scale(1,1)"><rect fill="#d8f2ff" stroke="none" x="520" y="400" width="60.799999999999955" height="15"/></g><g transform="translate(-14,-22) scale(1,1)"><path fill="none" stroke="#000000" d="M 520 400 L 580.8 400 L 580.8 415 L 520 415 L 520 400 Z Z" stroke-miterlimit="10"/></g><g transform="translate(-14,-22) scale(1,1)"><rect fill="#d8f2ff" stroke="none" x="520" y="414" width="152" height="74"/></g><g transform="translate(-14,-22) scale(1,1)"><path fill="none" stroke="#000000" d="M 520 414 L 672 414 L 672 488 L 520 488 L 520 414 Z Z" stroke-miterlimit="10"/></g><g transform="translate(-14,-22) scale(1,1)"><g><path fill="none" stroke="none"/><text fill="#000000" stroke="none" font-family="Helvetica" font-size="13px" font-style="normal" font-weight="bold" text-decoration="none" x="553.734130859375" y="434.5">ViewController</text></g></g><g transform="translate(-14,-22) scale(1,1)"><rect fill="#C0C0C0" stroke="none" x="783" y="423" width="60.799999999999955" height="15" opacity="0.2"/></g><g transform="translate(-14,-22) scale(1,1)"><rect fill="#C0C0C0" stroke="none" x="783" y="437" width="152" height="58" opacity="0.2"/></g><g transform="translate(-14,-22) scale(1,1)"><rect fill="#d8f2ff" stroke="none" x="776" y="431" width="152" height="57"/></g><g transform="translate(-14,-22) scale(1,1)"><path fill="none" stroke="#000000" d="M 776 431 L 928 431 L 928 488 L 776 488 L 776 431 Z Z" stroke-miterlimit="10"/></g><g transform="translate(-14,-22) scale(1,1)"><rect fill="#d8f2ff" stroke="none" x="776" y="416" width="60.799999999999955" height="15"/></g><g transform="translate(-14,-22) scale(1,1)"><path fill="none" stroke="#000000" d="M 776 416 L 836.8 416 L 836.8 431 L 776 431 L 776 416 Z Z" stroke-miterlimit="10"/></g><g transform="translate(-14,-22) scale(1,1)"><rect fill="#d8f2ff" stroke="none" x="776" y="430" width="152" height="58"/></g><g transform="translate(-14,-22) scale(1,1)"><path fill="none" stroke="#000000" d="M 776 430 L 928 430 L 928 488 L 776 488 L 776 430 Z Z" stroke-miterlimit="10"/></g><g transform="translate(-14,-22) scale(1,1)"><g><path fill="none" stroke="none"/><text fill="#000000" stroke="none" font-family="Helvetica" font-size="13px" font-style="normal" font-weight="bold" text-decoration="none" x="837.911376953125" y="450.5">View</text></g></g><g transform="translate(-14,-22) scale(1,1)"><path fill="#ffffff" stroke="none" d="M 744 88 L 901 88 L 911 98 L 911 136 L 744 136 L 744 88"/></g><g transform="translate(-14,-22) scale(1,1)"><path fill="none" stroke="#000000" d="M 744 88 L 901 88 L 911 98 L 911 136 L 744 136 L 744 88 L 744 88" stroke-miterlimit="10"/></g><g transform="translate(-14,-22) scale(1,1)"><path fill="none" stroke="#000000" d="M 901 88 L 901 98 L 911 98 L 901 88" stroke-miterlimit="10"/></g><g transform="translate(-14,-22) scale(1,1)"><g><path fill="none" stroke="none"/><text fill="#000000" stroke="none" font-family="Helvetica" font-size="13px" font-style="normal" font-weight="normal" text-decoration="none" x="749" y="106">UIデザイン要件の実装</text></g></g><g transform="translate(-14,-22) scale(1,1)"><path fill="none" stroke="#000000" d="M 735 191 L 797 138" stroke-miterlimit="10" stroke-dasharray="3"/></g><g transform="translate(-14,-22) scale(1,1)"><rect fill="#C0C0C0" stroke="none" x="527" y="607" width="64" height="15" opacity="0.2"/></g><g transform="translate(-14,-22) scale(1,1)"><rect fill="#C0C0C0" stroke="none" x="527" y="621" width="160" height="82" opacity="0.2"/></g><g transform="translate(-14,-22) scale(1,1)"><rect fill="#ffffd8" stroke="none" x="520" y="615" width="160" height="81"/></g><g transform="translate(-14,-22) scale(1,1)"><path fill="none" stroke="#000000" d="M 520 615 L 680 615 L 680 696 L 520 696 L 520 615 Z Z" stroke-miterlimit="10"/></g><g transform="translate(-14,-22) scale(1,1)"><rect fill="#ffffd8" stroke="none" x="520" y="600" width="64" height="15"/></g><g transform="translate(-14,-22) scale(1,1)"><path fill="none" stroke="#000000" d="M 520 600 L 584 600 L 584 615 L 520 615 L 520 600 Z Z" stroke-miterlimit="10"/></g><g transform="translate(-14,-22) scale(1,1)"><rect fill="#ffffd8" stroke="none" x="520" y="614" width="160" height="82"/></g><g transform="translate(-14,-22) scale(1,1)"><path fill="none" stroke="#000000" d="M 520 614 L 680 614 L 680 696 L 520 696 L 520 614 Z Z" stroke-miterlimit="10"/></g><g transform="translate(-14,-22) scale(1,1)"><g><path fill="none" stroke="none"/><text fill="#000000" stroke="none" font-family="Helvetica" font-size="13px" font-style="normal" font-weight="bold" text-decoration="none" x="558.806884765625" y="634.5">LogicalScreen</text></g></g><g transform="translate(-14,-22) scale(1,1)"><rect fill="#C0C0C0" stroke="none" x="271" y="607" width="64" height="15" opacity="0.2"/></g><g transform="translate(-14,-22) scale(1,1)"><rect fill="#C0C0C0" stroke="none" x="271" y="621" width="160" height="82" opacity="0.2"/></g><g transform="translate(-14,-22) scale(1,1)"><rect fill="#d8f2ff" stroke="none" x="264" y="615" width="160" height="81"/></g><g transform="translate(-14,-22) scale(1,1)"><path fill="none" stroke="#000000" d="M 264 615 L 424 615 L 424 696 L 264 696 L 264 615 Z Z" stroke-miterlimit="10"/></g><g transform="translate(-14,-22) scale(1,1)"><rect fill="#d8f2ff" stroke="none" x="264" y="600" width="64" height="15"/></g><g transform="translate(-14,-22) scale(1,1)"><path fill="none" stroke="#000000" d="M 264 600 L 328 600 L 328 615 L 264 615 L 264 600 Z Z" stroke-miterlimit="10"/></g><g transform="translate(-14,-22) scale(1,1)"><rect fill="#d8f2ff" stroke="none" x="264" y="614" width="160" height="82"/></g><g transform="translate(-14,-22) scale(1,1)"><path fill="none" stroke="#000000" d="M 264 614 L 424 614 L 424 696 L 264 696 L 264 614 Z Z" stroke-miterlimit="10"/></g><g transform="translate(-14,-22) scale(1,1)"><g><path fill="none" stroke="none"/><text fill="#000000" stroke="none" font-family="Helvetica" font-size="13px" font-style="normal" font-weight="bold" text-decoration="none" x="314.378662109375" y="634.5">FirstStage</text></g></g><g transform="translate(-14,-22) scale(1,1)"><rect fill="#C0C0C0" stroke="none" x="231" y="775" width="83.19999999999999" height="15" opacity="0.2"/></g><g transform="translate(-14,-22) scale(1,1)"><rect fill="#C0C0C0" stroke="none" x="231" y="789" width="208" height="58" opacity="0.2"/></g><g transform="translate(-14,-22) scale(1,1)"><rect fill="#ffffff" stroke="none" x="224" y="783" width="208" height="57"/></g><g transform="translate(-14,-22) scale(1,1)"><path fill="none" stroke="#000000" d="M 224 783 L 432 783 L 432 840 L 224 840 L 224 783 Z Z" stroke-miterlimit="10"/></g><g transform="translate(-14,-22) scale(1,1)"><rect fill="#ffffff" stroke="none" x="224" y="768" width="83.19999999999999" height="15"/></g><g transform="translate(-14,-22) scale(1,1)"><path fill="none" stroke="#000000" d="M 224 768 L 307.2 768 L 307.2 783 L 224 783 L 224 768 Z Z" stroke-miterlimit="10"/></g><g transform="translate(-14,-22) scale(1,1)"><rect fill="#ffffff" stroke="none" x="224" y="782" width="208" height="58"/></g><g transform="translate(-14,-22) scale(1,1)"><path fill="none" stroke="#000000" d="M 224 782 L 432 782 L 432 840 L 224 840 L 224 782 Z Z" stroke-miterlimit="10"/></g><g transform="translate(-14,-22) scale(1,1)"><g><path fill="none" stroke="none"/><text fill="#000000" stroke="none" font-family="Helvetica" font-size="13px" font-style="normal" font-weight="bold" text-decoration="none" x="305.602294921875" y="802.5">Domain</text></g></g><g transform="translate(-14,-22) scale(1,1)"><g><path fill="none" stroke="none"/><text fill="#000000" stroke="none" font-family="Helvetica" font-size="13px" font-style="normal" font-weight="normal" text-decoration="none" x="291.161376953125" y="817.5">(from Model)</text></g></g><g transform="translate(-14,-22) scale(1,1)"><path fill="#ffffff" stroke="none" d="M 24 32 L 347.02783203125 32 L 357.02783203125 42 L 357.02783203125 103 L 24 103 L 24 32"/></g><g transform="translate(-14,-22) scale(1,1)"><path fill="none" stroke="#000000" d="M 24 32 L 347.02783203125 32 L 357.02783203125 42 L 357.02783203125 103 L 24 103 L 24 32 L 24 32" stroke-miterlimit="10"/></g><g transform="translate(-14,-22) scale(1,1)"><path fill="none" stroke="#000000" d="M 347.02783203125 32 L 347.02783203125 42 L 357.02783203125 42 L 347.02783203125 32" stroke-miterlimit="10"/></g><g transform="translate(-14,-22) scale(1,1)"><g><path fill="none" stroke="none"/><text fill="#000000" stroke="none" font-family="Helvetica" font-size="13px" font-style="normal" font-weight="normal" text-decoration="none" x="29" y="50">参考: Two Step View</text></g></g><g transform="translate(-14,-22) scale(1,1)"><g><path fill="none" stroke="none"/><text fill="#000000" stroke="none" font-family="Helvetica" font-size="13px" font-style="normal" font-weight="normal" text-decoration="none" x="29" y="65">https://martinfowler.com/eaaCatalog/twoStepView.html</text></g></g><g transform="translate(-14,-22) scale(1,1)"><path fill="#ffffff" stroke="none" d="M 272 360 L 423 360 L 433 370 L 433 408 L 272 408 L 272 360"/></g><g transform="translate(-14,-22) scale(1,1)"><path fill="none" stroke="#000000" d="M 272 360 L 423 360 L 433 370 L 433 408 L 272 408 L 272 360 L 272 360" stroke-miterlimit="10"/></g><g transform="translate(-14,-22) scale(1,1)"><path fill="none" stroke="#000000" d="M 423 360 L 423 370 L 433 370 L 423 360" stroke-miterlimit="10"/></g><g transform="translate(-14,-22) scale(1,1)"><g><path fill="none" stroke="none"/><text fill="#000000" stroke="none" font-family="Helvetica" font-size="13px" font-style="normal" font-weight="normal" text-decoration="none" x="277" y="378">・1画面1VC</text></g></g><g transform="translate(-14,-22) scale(1,1)"><g><path fill="none" stroke="none"/><text fill="#000000" stroke="none" font-family="Helvetica" font-size="13px" font-style="normal" font-weight="normal" text-decoration="none" x="277" y="393">・Second Stageに相当</text></g></g><g transform="translate(-14,-22) scale(1,1)"><path fill="none" stroke="#000000" d="M 519 425 L 435 404" stroke-miterlimit="10" stroke-dasharray="3"/></g><g transform="translate(-14,-22) scale(1,1)"><path fill="none" stroke="#000000" d="M 331 696 L 331 768" stroke-miterlimit="10" stroke-dasharray="3"/></g><g transform="translate(-14,-22) scale(1,1)"><path fill="none" stroke="#000000" d="M 326.790482243984 757.8373251423759 L 331 768 L 335.209517756016 757.8373251423759" stroke-miterlimit="10"/></g><g transform="translate(-14,-22) scale(1,1)"><g><path fill="none" stroke="none"/><text fill="#000000" stroke="none" font-family="Helvetica" font-size="13px" font-style="normal" font-weight="normal" text-decoration="none" x="342.5" y="737.5">«use»</text></g></g><g transform="translate(-14,-22) scale(1,1)"><path fill="none" stroke="#000000" d="M 672 450 L 776 450" stroke-miterlimit="10" stroke-dasharray="3"/></g><g transform="translate(-14,-22) scale(1,1)"><path fill="none" stroke="#000000" d="M 765.8373251423759 454.209517756016 L 776 450 L 765.8373251423758 445.790482243984" stroke-miterlimit="10"/></g><g transform="translate(-14,-22) scale(1,1)"><g><path fill="none" stroke="none"/><text fill="#000000" stroke="none" font-family="Helvetica" font-size="13px" font-style="normal" font-weight="normal" text-decoration="none" x="690.5" y="444.5">«data bind»</text></g></g><g transform="translate(-14,-22) scale(1,1)"><path fill="none" stroke="#000000" d="M 424 631 L 520 631" stroke-miterlimit="10" stroke-dasharray="3"/></g><g transform="translate(-14,-22) scale(1,1)"><path fill="none" stroke="#000000" d="M 509.83732514237585 635.209517756016 L 520 631 L 509.83732514237585 626.790482243984" stroke-miterlimit="10"/></g><g transform="translate(-14,-22) scale(1,1)"><g><path fill="none" stroke="none"/><text fill="#000000" stroke="none" font-family="Helvetica" font-size="13px" font-style="normal" font-weight="normal" text-decoration="none" x="446.5" y="620.5">«create»</text></g></g><g transform="translate(-14,-22) scale(1,1)"><path fill="#ffffff" stroke="none" d="M 750 600 L 953 600 L 963 610 L 963 638 L 750 638 L 750 600"/></g><g transform="translate(-14,-22) scale(1,1)"><path fill="none" stroke="#000000" d="M 750 600 L 953 600 L 963 610 L 963 638 L 750 638 L 750 600 L 750 600" stroke-miterlimit="10"/></g><g transform="translate(-14,-22) scale(1,1)"><path fill="none" stroke="#000000" d="M 953 600 L 953 610 L 963 610 L 953 600" stroke-miterlimit="10"/></g><g transform="translate(-14,-22) scale(1,1)"><g><path fill="none" stroke="none"/><text fill="#000000" stroke="none" font-family="Helvetica" font-size="13px" font-style="normal" font-weight="normal" text-decoration="none" x="755" y="618">画面に対応する論理的なデータ。</text></g></g><g transform="translate(-14,-22) scale(1,1)"><g><path fill="none" stroke="none"/><text fill="#000000" stroke="none" font-family="Helvetica" font-size="13px" font-style="normal" font-weight="normal" text-decoration="none" x="755" y="633">レイアウト情報を持たない。</text></g></g><g transform="translate(-14,-22) scale(1,1)"><path fill="none" stroke="#000000" d="M 681 639 L 749 631" stroke-miterlimit="10" stroke-dasharray="3"/></g><g transform="translate(-14,-22) scale(1,1)"><path fill="none" stroke="#000000" d="M 864 288 L 864 416" stroke-miterlimit="10" stroke-dasharray="3"/></g><g transform="translate(-14,-22) scale(1,1)"><path fill="none" stroke="#000000" d="M 859.790482243984 405.83732514237585 L 864 416 L 868.209517756016 405.83732514237585" stroke-miterlimit="10"/></g><g transform="translate(-14,-22) scale(1,1)"><g><path fill="none" stroke="none"/><text fill="#000000" stroke="none" font-family="Helvetica" font-size="13px" font-style="normal" font-weight="normal" text-decoration="none" x="866.5" y="357.5">«assign»</text></g></g><g transform="translate(-14,-22) scale(1,1)"><path fill="none" stroke="#000000" d="M 616 488 L 616 600" stroke-miterlimit="10" stroke-dasharray="3"/></g><g transform="translate(-14,-22) scale(1,1)"><path fill="none" stroke="#000000" d="M 611.790482243984 589.8373251423759 L 616 600 L 620.209517756016 589.8373251423759" stroke-miterlimit="10"/></g><g transform="translate(-14,-22) scale(1,1)"><g><path fill="none" stroke="none"/><text fill="#000000" stroke="none" font-family="Helvetica" font-size="13px" font-style="normal" font-weight="normal" text-decoration="none" x="627.5" y="549.5">«use»</text></g></g><g transform="translate(-14,-22) scale(1,1)"><path fill="none" stroke="#000000" d="M 632 288 L 632 400" stroke-miterlimit="10" stroke-dasharray="3"/></g><g transform="translate(-14,-22) scale(1,1)"><path fill="none" stroke="#000000" d="M 627.790482243984 389.83732514237585 L 632 400 L 636.209517756016 389.83732514237585" stroke-miterlimit="10"/></g><g transform="translate(-14,-22) scale(1,1)"><g><path fill="none" stroke="none"/><text fill="#000000" stroke="none" font-family="Helvetica" font-size="13px" font-style="normal" font-weight="normal" text-decoration="none" x="634.5" y="349.5">«assign»</text></g></g><g transform="translate(-14,-22) scale(1,1)"><path fill="none" stroke="#000000" d="M 520 456 L 360 456 M 360 456 A 8 8 0 0 0 352 464 L 352 600" stroke-miterlimit="10" stroke-dasharray="3"/></g><g transform="translate(-14,-22) scale(1,1)"><path fill="none" stroke="#000000" d="M 347.790482243984 589.8373251423759 L 352 600 L 356.209517756016 589.8373251423759" stroke-miterlimit="10"/></g><g transform="translate(-14,-22) scale(1,1)"><g><path fill="none" stroke="none"/><text fill="#000000" stroke="none" font-family="Helvetica" font-size="13px" font-style="normal" font-weight="normal" text-decoration="none" x="406.5" y="476.5">«use»</text></g></g><g transform="translate(-14,-22) scale(1,1)"><path fill="none" stroke="#000000" d="M 608 696 L 608 808 M 608 808 A 8 8 0 0 1 600 816 L 432 816" stroke-miterlimit="10" stroke-dasharray="3"/></g><g transform="translate(-14,-22) scale(1,1)"><path fill="none" stroke="#000000" d="M 442.16267485762415 811.790482243984 L 432 816 L 442.16267485762415 820.209517756016" stroke-miterlimit="10"/></g><g transform="translate(-14,-22) scale(1,1)"><g><path fill="none" stroke="none"/><text fill="#000000" stroke="none" font-family="Helvetica" font-size="13px" font-style="normal" font-weight="normal" text-decoration="none" x="511.5" y="807.5">«use»</text></g></g></g></svg>