<svg version="1.1" xmlns="http://www.w3.org/2000/svg" xmlns:xlink="http://www.w3.org/1999/xlink" width="788" height="583"><defs/><g><g transform="translate(-78,-54) scale(1,1)"><rect fill="#C0C0C0" stroke="none" x="463" y="350" width="123.16259765625" height="72" opacity="0.2"/></g><g transform="translate(-78,-54) scale(1,1)"><rect fill="#d8f2ff" stroke="none" x="456" y="343" width="123.16259765625" height="72"/></g><g transform="translate(-78,-54) scale(1,1)"><path fill="none" stroke="#000000" d="M 456 343 L 579.16259765625 343 L 579.16259765625 415 L 456 415 L 456 343 Z Z" stroke-miterlimit="10"/></g><g transform="translate(-78,-54) scale(1,1)"><path fill="none" stroke="#000000" d="M 456 368 L 579.16259765625 368" stroke-miterlimit="10"/></g><g transform="translate(-78,-54) scale(1,1)"><path fill="none" stroke="#000000" d="M 456 378 L 579.16259765625 378" stroke-miterlimit="10"/></g><g transform="translate(-78,-54) scale(1,1)"><g><path fill="none" stroke="none"/><text fill="#000000" stroke="none" font-family="Helvetica" font-size="13px" font-style="normal" font-weight="bold" text-decoration="none" x="463.75" y="362.5">Screen1FirstStage</text></g></g><g transform="translate(-78,-54) scale(1,1)"><rect fill="#C0C0C0" stroke="none" x="135" y="338" width="176" height="96" opacity="0.2"/></g><g transform="translate(-78,-54) scale(1,1)"><rect fill="#ffffff" stroke="none" x="128" y="331" width="176" height="96"/></g><g transform="translate(-78,-54) scale(1,1)"><path fill="none" stroke="#000000" d="M 128 331 L 304 331 L 304 427 L 128 427 L 128 331 Z Z" stroke-miterlimit="10"/></g><g transform="translate(-78,-54) scale(1,1)"><path fill="none" stroke="#000000" d="M 128 371 L 304 371" stroke-miterlimit="10"/></g><g transform="translate(-78,-54) scale(1,1)"><path fill="none" stroke="#000000" d="M 128 381 L 304 381" stroke-miterlimit="10"/></g><g transform="translate(-78,-54) scale(1,1)"><g><path fill="none" stroke="none"/><text fill="#000000" stroke="none" font-family="Helvetica" font-size="13px" font-style="normal" font-weight="bold" text-decoration="none" x="196.1318359375" y="350.5">Class1</text></g></g><g transform="translate(-78,-54) scale(1,1)"><g><path fill="none" stroke="none"/><text fill="#000000" stroke="none" font-family="Helvetica" font-size="13px" font-style="normal" font-weight="normal" text-decoration="none" x="174.46728515625" y="365.5">(from Domain)</text></g></g><g transform="translate(-78,-54) scale(1,1)"><path fill="none" stroke="#000000" d="M 456 376 L 304 376" stroke-miterlimit="10" stroke-dasharray="3"/></g><g transform="translate(-78,-54) scale(1,1)"><path fill="none" stroke="#000000" d="M 314.16267485762415 371.790482243984 L 304 376 L 314.16267485762415 380.209517756016" stroke-miterlimit="10"/></g><g transform="translate(-78,-54) scale(1,1)"><g><path fill="none" stroke="none"/><text fill="#000000" stroke="none" font-family="Helvetica" font-size="13px" font-style="normal" font-weight="normal" text-decoration="none" x="361.5" y="363.5">«use»</text></g></g><g transform="translate(-78,-54) scale(1,1)"><rect fill="#C0C0C0" stroke="none" x="471" y="199" width="112" height="72" opacity="0.2"/></g><g transform="translate(-78,-54) scale(1,1)"><rect fill="#ffffff" stroke="none" x="464" y="192" width="112" height="72"/></g><g transform="translate(-78,-54) scale(1,1)"><path fill="none" stroke="#000000" d="M 464 192 L 576 192 L 576 264 L 464 264 L 464 192 Z Z" stroke-miterlimit="10"/></g><g transform="translate(-78,-54) scale(1,1)"><g><path fill="none" stroke="none"/><text fill="#000000" stroke="none" font-family="Helvetica" font-size="13px" font-style="normal" font-weight="normal" text-decoration="none" x="487.839599609375" y="209.5">«interface»</text></g></g><g transform="translate(-78,-54) scale(1,1)"><g><path fill="none" stroke="none"/><text fill="#000000" stroke="none" font-family="Helvetica" font-size="13px" font-style="normal" font-weight="bold" text-decoration="none" x="491.0927734375" y="224.5">Interface1</text></g></g><g transform="translate(-78,-54) scale(1,1)"><g><path fill="none" stroke="none"/><text fill="#000000" stroke="none" font-family="Helvetica" font-size="13px" font-style="normal" font-weight="normal" text-decoration="none" x="478.46728515625" y="239.5">(from Domain)</text></g></g><g transform="translate(-78,-54) scale(1,1)"><path fill="none" stroke="#000000" d="M 519 343 L 519 264" stroke-miterlimit="10" stroke-dasharray="3"/></g><g transform="translate(-78,-54) scale(1,1)"><path fill="#FFFFFF" stroke="none" d="M 527.419035512032 284.3253497152483 L 519 264 L 510.580964487968 284.3253497152483"/></g><g transform="translate(-78,-54) scale(1,1)"><path fill="none" stroke="#000000" d="M 527.419035512032 284.3253497152483 L 519 264 L 510.580964487968 284.3253497152483 L 527.419035512032 284.3253497152483" stroke-miterlimit="10"/></g><g transform="translate(-78,-54) scale(1,1)"><path fill="#ffffff" stroke="none" d="M 88 64 L 309 64 L 319 74 L 319 223 L 88 223 L 88 64"/></g><g transform="translate(-78,-54) scale(1,1)"><path fill="none" stroke="#000000" d="M 88 64 L 309 64 L 319 74 L 319 223 L 88 223 L 88 64 L 88 64" stroke-miterlimit="10"/></g><g transform="translate(-78,-54) scale(1,1)"><path fill="none" stroke="#000000" d="M 309 64 L 309 74 L 319 74 L 309 64" stroke-miterlimit="10"/></g><g transform="translate(-78,-54) scale(1,1)"><g><path fill="none" stroke="none"/><text fill="#000000" stroke="none" font-family="Helvetica" font-size="13px" font-style="normal" font-weight="normal" text-decoration="none" x="93" y="82">・Observerパターン</text></g></g><g transform="translate(-78,-54) scale(1,1)"><rect fill="#C0C0C0" stroke="none" x="719" y="342" width="144" height="88" opacity="0.2"/></g><g transform="translate(-78,-54) scale(1,1)"><rect fill="#ffffff" stroke="none" x="712" y="335" width="144" height="88"/></g><g transform="translate(-78,-54) scale(1,1)"><path fill="none" stroke="#000000" d="M 712 335 L 856 335 L 856 423 L 712 423 L 712 335 Z Z" stroke-miterlimit="10"/></g><g transform="translate(-78,-54) scale(1,1)"><path fill="none" stroke="#000000" d="M 712 375 L 856 375" stroke-miterlimit="10"/></g><g transform="translate(-78,-54) scale(1,1)"><path fill="none" stroke="#000000" d="M 712 385 L 856 385" stroke-miterlimit="10"/></g><g transform="translate(-78,-54) scale(1,1)"><g><path fill="none" stroke="none"/><text fill="#000000" stroke="none" font-family="Helvetica" font-size="13px" font-style="normal" font-weight="bold" text-decoration="none" x="764.1318359375" y="354.5">Class2</text></g></g><g transform="translate(-78,-54) scale(1,1)"><g><path fill="none" stroke="none"/><text fill="#000000" stroke="none" font-family="Helvetica" font-size="13px" font-style="normal" font-weight="normal" text-decoration="none" x="742.46728515625" y="369.5">(from Domain)</text></g></g><g transform="translate(-78,-54) scale(1,1)"><path fill="none" stroke="#000000" d="M 711 379 L 580 379" stroke-miterlimit="10" stroke-dasharray="3"/></g><g transform="translate(-78,-54) scale(1,1)"><path fill="none" stroke="#000000" d="M 590.1626748576241 374.790482243984 L 580 379 L 590.1626748576241 383.209517756016" stroke-miterlimit="10"/></g><g transform="translate(-78,-54) scale(1,1)"><g><path fill="none" stroke="none"/><text fill="#000000" stroke="none" font-family="Helvetica" font-size="13px" font-style="normal" font-weight="normal" text-decoration="none" x="623.5" y="363.5">«use»</text></g></g><g transform="translate(-78,-54) scale(1,1)"><path fill="#ffffff" stroke="none" d="M 640 480 L 814.88623046875 480 L 824.88623046875 490 L 824.88623046875 528 L 640 528 L 640 480"/></g><g transform="translate(-78,-54) scale(1,1)"><path fill="none" stroke="#000000" d="M 640 480 L 814.88623046875 480 L 824.88623046875 490 L 824.88623046875 528 L 640 528 L 640 480 L 640 480" stroke-miterlimit="10"/></g><g transform="translate(-78,-54) scale(1,1)"><path fill="none" stroke="#000000" d="M 814.88623046875 480 L 814.88623046875 490 L 824.88623046875 490 L 814.88623046875 480" stroke-miterlimit="10"/></g><g transform="translate(-78,-54) scale(1,1)"><g><path fill="none" stroke="none"/><text fill="#000000" stroke="none" font-family="Helvetica" font-size="13px" font-style="normal" font-weight="normal" text-decoration="none" x="645" y="498">Interface1実装に対するnotify</text></g></g><g transform="translate(-78,-54) scale(1,1)"><path fill="none" stroke="#000000" d="M 645 379 L 715 479" stroke-miterlimit="10" stroke-dasharray="3"/></g><g transform="translate(-78,-54) scale(1,1)"><path fill="#ffffff" stroke="none" d="M 320 448 L 408 448 L 418 458 L 418 496 L 320 496 L 320 448"/></g><g transform="translate(-78,-54) scale(1,1)"><path fill="none" stroke="#000000" d="M 320 448 L 408 448 L 418 458 L 418 496 L 320 496 L 320 448 L 320 448" stroke-miterlimit="10"/></g><g transform="translate(-78,-54) scale(1,1)"><path fill="none" stroke="#000000" d="M 408 448 L 408 458 L 418 458 L 408 448" stroke-miterlimit="10"/></g><g transform="translate(-78,-54) scale(1,1)"><g><path fill="none" stroke="none"/><text fill="#000000" stroke="none" font-family="Helvetica" font-size="13px" font-style="normal" font-weight="normal" text-decoration="none" x="325" y="466">通信処理など</text></g></g><g transform="translate(-78,-54) scale(1,1)"><path fill="none" stroke="#000000" d="M 380 376 L 372 447" stroke-miterlimit="10" stroke-dasharray="3"/></g><g transform="translate(-78,-54) scale(1,1)"><rect fill="#C0C0C0" stroke="none" x="459" y="575" width="129.65625" height="59" opacity="0.2"/></g><g transform="translate(-78,-54) scale(1,1)"><rect fill="#ffffd8" stroke="none" x="452" y="568" width="129.65625" height="59"/></g><g transform="translate(-78,-54) scale(1,1)"><path fill="none" stroke="#000000" d="M 452 568 L 581.65625 568 L 581.65625 627 L 452 627 L 452 568 Z Z" stroke-miterlimit="10"/></g><g transform="translate(-78,-54) scale(1,1)"><path fill="none" stroke="#000000" d="M 452 608 L 581.65625 608" stroke-miterlimit="10"/></g><g transform="translate(-78,-54) scale(1,1)"><path fill="none" stroke="#000000" d="M 452 618 L 581.65625 618" stroke-miterlimit="10"/></g><g transform="translate(-78,-54) scale(1,1)"><g><path fill="none" stroke="none"/><text fill="#000000" stroke="none" font-family="Helvetica" font-size="13px" font-style="normal" font-weight="bold" text-decoration="none" x="471.299560546875" y="587.5">LogicalScreenA</text></g></g><g transform="translate(-78,-54) scale(1,1)"><g><path fill="none" stroke="none"/><text fill="#000000" stroke="none" font-family="Helvetica" font-size="13px" font-style="normal" font-weight="normal" text-decoration="none" x="456.5" y="602.5">(from LogicalScreen)</text></g></g><g transform="translate(-78,-54) scale(1,1)"><path fill="none" stroke="#000000" d="M 517 416 L 516 567" stroke-miterlimit="10" stroke-dasharray="3"/></g><g transform="translate(-78,-54) scale(1,1)"><path fill="none" stroke="#000000" d="M 511.8578755575674 556.8096710012187 L 516 567 L 520.2767264557975 556.8654249806772" stroke-miterlimit="10"/></g><g transform="translate(-78,-54) scale(1,1)"><g><path fill="none" stroke="none"/><text fill="#000000" stroke="none" font-family="Helvetica" font-size="13px" font-style="normal" font-weight="normal" text-decoration="none" x="526.5" y="496.5">«create»</text></g></g></g></svg>