<svg version="1.1" xmlns="http://www.w3.org/2000/svg" xmlns:xlink="http://www.w3.org/1999/xlink" width="524.4443359375" height="501"><defs/><g><g transform="translate(-46,-22) scale(1,1)"><rect fill="#C0C0C0" stroke="none" x="415" y="287" width="152.4443359375" height="72" opacity="0.2"/></g><g transform="translate(-46,-22) scale(1,1)"><rect fill="#ffffff" stroke="none" x="408" y="280" width="152.4443359375" height="72"/></g><g transform="translate(-46,-22) scale(1,1)"><path fill="none" stroke="#000000" d="M 408 280 L 560.4443359375 280 L 560.4443359375 352 L 408 352 L 408 280 Z Z" stroke-miterlimit="10"/></g><g transform="translate(-46,-22) scale(1,1)"><path fill="none" stroke="#000000" d="M 408 305 L 560.4443359375 305" stroke-miterlimit="10"/></g><g transform="translate(-46,-22) scale(1,1)"><path fill="none" stroke="#000000" d="M 408 343 L 560.4443359375 343" stroke-miterlimit="10"/></g><g transform="translate(-46,-22) scale(1,1)"><g><path fill="none" stroke="none"/><text fill="#000000" stroke="none" font-family="Helvetica" font-size="13px" font-style="normal" font-weight="bold" text-decoration="none" x="462.903564453125" y="299.5">Header</text></g></g><g transform="translate(-46,-22) scale(1,1)"><g><path fill="none" stroke="none"/><text fill="#000000" stroke="none" font-family="Helvetica" font-size="13px" font-style="normal" font-weight="normal" text-decoration="none" x="413" y="322.5">+thumbnailImage: Image</text></g></g><g transform="translate(-46,-22) scale(1,1)"><g><path fill="none" stroke="none"/><text fill="#000000" stroke="none" font-family="Helvetica" font-size="13px" font-style="normal" font-weight="normal" text-decoration="none" x="413" y="337.5">+description: String</text></g></g><g transform="translate(-46,-22) scale(1,1)"><path fill="#ffffff" stroke="none" d="M 56 32 L 446.79541015625 32 L 456.79541015625 42 L 456.79541015625 70 L 56 70 L 56 32"/></g><g transform="translate(-46,-22) scale(1,1)"><path fill="none" stroke="#000000" d="M 56 32 L 446.79541015625 32 L 456.79541015625 42 L 456.79541015625 70 L 56 70 L 56 32 L 56 32" stroke-miterlimit="10"/></g><g transform="translate(-46,-22) scale(1,1)"><path fill="none" stroke="#000000" d="M 446.79541015625 32 L 446.79541015625 42 L 456.79541015625 42 L 446.79541015625 32" stroke-miterlimit="10"/></g><g transform="translate(-46,-22) scale(1,1)"><g><path fill="none" stroke="none"/><text fill="#000000" stroke="none" font-family="Helvetica" font-size="13px" font-style="normal" font-weight="normal" text-decoration="none" x="61" y="50">UIを実現するためのDomainを定義する。レイアウトを含まない。</text></g></g><g transform="translate(-46,-22) scale(1,1)"><rect fill="#C0C0C0" stroke="none" x="431" y="463" width="97.8291015625" height="57" opacity="0.2"/></g><g transform="translate(-46,-22) scale(1,1)"><rect fill="#ffffff" stroke="none" x="424" y="456" width="97.8291015625" height="57"/></g><g transform="translate(-46,-22) scale(1,1)"><path fill="none" stroke="#000000" d="M 424 456 L 521.8291015625 456 L 521.8291015625 513 L 424 513 L 424 456 Z Z" stroke-miterlimit="10"/></g><g transform="translate(-46,-22) scale(1,1)"><path fill="none" stroke="#000000" d="M 424 481 L 521.8291015625 481" stroke-miterlimit="10"/></g><g transform="translate(-46,-22) scale(1,1)"><path fill="none" stroke="#000000" d="M 424 504 L 521.8291015625 504" stroke-miterlimit="10"/></g><g transform="translate(-46,-22) scale(1,1)"><g><path fill="none" stroke="none"/><text fill="#000000" stroke="none" font-family="Helvetica" font-size="13px" font-style="normal" font-weight="bold" text-decoration="none" x="435.333251953125" y="475.5">BodyContent</text></g></g><g transform="translate(-46,-22) scale(1,1)"><g><path fill="none" stroke="none"/><text fill="#000000" stroke="none" font-family="Helvetica" font-size="13px" font-style="normal" font-weight="normal" text-decoration="none" x="429" y="498.5">+thumbnailList</text></g></g><g transform="translate(-46,-22) scale(1,1)"><rect fill="#C0C0C0" stroke="none" x="143" y="359" width="107.25537109375" height="44" opacity="0.2"/></g><g transform="translate(-46,-22) scale(1,1)"><rect fill="#ffffd8" stroke="none" x="136" y="352" width="107.25537109375" height="44"/></g><g transform="translate(-46,-22) scale(1,1)"><path fill="none" stroke="#000000" d="M 136 352 L 243.25537109375 352 L 243.25537109375 396 L 136 396 L 136 352 Z Z" stroke-miterlimit="10"/></g><g transform="translate(-46,-22) scale(1,1)"><path fill="none" stroke="#000000" d="M 136 377 L 243.25537109375 377" stroke-miterlimit="10"/></g><g transform="translate(-46,-22) scale(1,1)"><path fill="none" stroke="#000000" d="M 136 387 L 243.25537109375 387" stroke-miterlimit="10"/></g><g transform="translate(-46,-22) scale(1,1)"><g><path fill="none" stroke="none"/><text fill="#000000" stroke="none" font-family="Helvetica" font-size="13px" font-style="normal" font-weight="bold" text-decoration="none" x="144.09912109375" y="371.5">LogicalScreenA</text></g></g><g transform="translate(-46,-22) scale(1,1)"><path fill="none" stroke="#000000" d="M 244 363 L 407 331" stroke-miterlimit="10"/></g><g transform="translate(-46,-22) scale(1,1)"><g><path fill="none" stroke="none"/><text fill="#000000" stroke="none" font-family="Helvetica" font-size="13px" font-style="normal" font-weight="normal" text-decoration="none" x="263.5" y="377.5">1</text></g></g><g transform="translate(-46,-22) scale(1,1)"><g><path fill="none" stroke="none"/><text fill="#000000" stroke="none" font-family="Helvetica" font-size="13px" font-style="normal" font-weight="normal" text-decoration="none" x="384.5" y="353.5">1</text></g></g><g transform="translate(-46,-22) scale(1,1)"><path fill="none" stroke="#000000" d="M 244 395 L 423 465" stroke-miterlimit="10"/></g><g transform="translate(-46,-22) scale(1,1)"><g><path fill="none" stroke="none"/><text fill="#000000" stroke="none" font-family="Helvetica" font-size="13px" font-style="normal" font-weight="normal" text-decoration="none" x="255.5" y="420.5">1</text></g></g><g transform="translate(-46,-22) scale(1,1)"><g><path fill="none" stroke="none"/><text fill="#000000" stroke="none" font-family="Helvetica" font-size="13px" font-style="normal" font-weight="normal" text-decoration="none" x="394.5" y="474.5">1</text></g></g></g></svg>